<svg width="92" height="19" viewBox="0 0 92 19" fill="none" xmlns="http://www.w3.org/2000/svg">
<path fill-rule="evenodd" clip-rule="evenodd" d="M0.203383 5.21143C7.281 -1.73587 18.2931 -1.73841 25.3735 5.21143C25.6396 5.47268 25.6448 5.91502 25.3879 6.18603L24.0195 7.62672C23.7741 7.885 23.3793 7.89094 23.1243 7.64283C17.2916 1.9721 8.2845 1.97337 2.45295 7.64283C2.19798 7.89094 1.80314 7.88542 1.55776 7.62672L0.189395 6.18603C-0.0679728 5.91502 -0.0627774 5.47268 0.203383 5.21143ZM10.2307 16.2857C10.2307 14.7865 11.3757 13.5714 12.7884 13.5714C14.2012 13.5714 15.3461 14.7865 15.3461 16.2857C15.3461 17.7849 14.2012 19 12.7884 19C11.3757 19 10.2307 17.7849 10.2307 16.2857ZM4.68894 10.0263C9.28999 5.70806 16.2817 5.70339 20.8879 10.0263C21.1633 10.2846 21.1725 10.7342 20.9103 11.0081L19.534 12.4497C19.2942 12.7012 18.9081 12.7177 18.6527 12.4836C15.3058 9.41263 10.2787 9.40585 6.92372 12.4836C6.66835 12.7177 6.2823 12.7007 6.04252 12.4497L4.66616 11.0081C4.40439 10.7342 4.41319 10.285 4.68894 10.0263ZM37.62 7.42C37.62 7.31333 37.6 7.21333 37.56 7.12C37.5467 7.06667 37.5333 7.02667 37.52 7C37.52 6.96 37.5133 6.92667 37.5 6.9C37.5 6.82 37.5067 6.77333 37.52 6.76C37.64 6.53333 37.5933 6.31333 37.38 6.1C37.3533 6.07333 37.3133 6.04 37.26 6C37.22 5.94667 37.1533 5.91333 37.06 5.9H36.96C36.92 5.88667 36.8667 5.88667 36.8 5.9C36.6 5.91333 36.3733 5.9 36.12 5.86C36 5.83333 35.88 5.82 35.76 5.82C35.6533 5.80667 35.5333 5.8 35.4 5.8C35.3733 5.8 35.3333 5.80667 35.28 5.82C35.24 5.83333 35.2 5.84 35.16 5.84C35.1067 5.84 35.04 5.83333 34.96 5.82C34.8933 5.80667 34.8133 5.79333 34.72 5.78C34.6933 5.79333 34.66 5.80667 34.62 5.82C34.58 5.83333 34.5333 5.84667 34.48 5.86C34.2267 5.92667 34.0133 5.93333 33.84 5.88C33.72 5.84 33.6 5.83333 33.48 5.86C33.36 5.87333 33.2467 5.89333 33.14 5.92C33.0333 5.93333 32.9267 5.95333 32.82 5.98C32.7133 5.99333 32.6 6 32.48 6H32.14C32.0867 6 32.04 6.00667 32 6.02H31.9C31.82 6.06 31.74 6.09333 31.66 6.12C31.5933 6.14667 31.5333 6.19333 31.48 6.26C31.4667 6.28667 31.4133 6.30667 31.32 6.32C31.2267 6.32 31.1667 6.33333 31.14 6.36C31.1267 6.41333 31.12 6.47333 31.12 6.54C31.1333 6.59333 31.1267 6.63333 31.1 6.66C31.0467 6.71333 31.02 6.78667 31.02 6.88C31.02 6.96 31 7.03333 30.96 7.1C30.92 7.18 30.92 7.23333 30.96 7.26C31 7.28667 30.9933 7.33333 30.94 7.4C30.9667 7.46667 30.9667 7.54667 30.94 7.64C30.9133 7.72 30.9133 7.78667 30.94 7.84C30.98 7.88 30.9933 7.94667 30.98 8.04C30.98 8.13333 31.0067 8.21333 31.06 8.28C31.1667 8.32 31.2733 8.34 31.38 8.34C31.5 8.32667 31.6067 8.34667 31.7 8.4H31.96C32.04 8.4 32.1133 8.41333 32.18 8.44C32.2467 8.45333 32.32 8.45333 32.4 8.44C32.48 8.41333 32.5533 8.43333 32.62 8.5C32.6467 8.58 32.6667 8.66 32.68 8.74L32.72 8.98C32.72 9.07333 32.7133 9.13333 32.7 9.16C32.7 9.21333 32.7133 9.26 32.74 9.3C32.7667 9.32667 32.78 9.36667 32.78 9.42V9.72C32.7667 9.85333 32.7933 10 32.86 10.16C32.8733 10.1867 32.88 10.2267 32.88 10.28C32.8667 10.3467 32.8467 10.4067 32.82 10.46C32.8067 10.5133 32.7933 10.5733 32.78 10.64L32.82 10.84L32.86 11.04L32.72 11.3C32.7333 11.6067 32.74 11.9133 32.74 12.22C32.7533 12.5133 32.7467 12.8133 32.72 13.12V13.38C32.7333 13.5133 32.7333 13.64 32.72 13.76C32.7067 13.88 32.7267 14.0067 32.78 14.14V14.2C32.7667 14.3467 32.76 14.5 32.76 14.66V15.1C32.76 15.14 32.7467 15.2 32.72 15.28C32.5467 15.4133 32.3933 15.52 32.26 15.6C32.18 15.5733 32.1067 15.5467 32.04 15.52L31.84 15.44C31.7867 15.48 31.74 15.52 31.7 15.56C31.66 15.5867 31.6133 15.6133 31.56 15.64C31.4533 15.6133 31.3467 15.6133 31.24 15.64C31.1333 15.6533 31.0267 15.6733 30.92 15.7V15.94C30.8933 16.06 30.8667 16.1867 30.84 16.32C30.8267 16.44 30.8333 16.56 30.86 16.68C30.8733 16.7467 30.86 16.8133 30.82 16.88C30.7933 16.9867 30.7933 17.0933 30.82 17.2C30.86 17.32 30.8867 17.4467 30.9 17.58C30.9667 17.6333 31.0333 17.6933 31.1 17.76C31.18 17.8267 31.2333 17.9067 31.26 18C31.3133 18.08 31.3733 18.1533 31.44 18.22C31.5067 18.3 31.5733 18.3867 31.64 18.48C31.9733 18.4667 32.3 18.4533 32.62 18.44C32.94 18.4267 33.26 18.3933 33.58 18.34C33.6467 18.3667 33.7 18.3867 33.74 18.4C33.7933 18.4133 33.8467 18.4333 33.9 18.46C34.0067 18.46 34.1133 18.4467 34.22 18.42C34.3267 18.3933 34.4333 18.3933 34.54 18.42C34.6467 18.4333 34.74 18.42 34.82 18.38C34.9133 18.3533 35.0067 18.3333 35.1 18.32C35.3 18.32 35.5267 18.3 35.78 18.26L36.06 18.3L36.38 18.34H36.44C36.5867 18.2333 36.6667 18.1533 36.68 18.1C36.7067 18.06 36.72 17.9667 36.72 17.82C36.68 17.5133 36.66 17.2133 36.66 16.92C36.66 16.6133 36.6733 16.3133 36.7 16.02C36.7133 15.9133 36.7133 15.8067 36.7 15.7C36.7 15.5933 36.72 15.4933 36.76 15.4C36.8533 15.24 36.7933 15.1333 36.58 15.08C36.4467 15.04 36.3267 14.96 36.22 14.84C36.1933 14.8133 36.16 14.8 36.12 14.8C36.08 14.8133 36.04 14.8333 36 14.86C35.9733 14.8867 35.9467 14.9067 35.92 14.92C35.8 14.92 35.7133 14.86 35.66 14.74C35.54 14.38 35.48 14.0267 35.48 13.68C35.4933 13.4133 35.5133 13.1467 35.54 12.88C35.5667 12.6133 35.58 12.34 35.58 12.06C35.62 11.98 35.6267 11.9 35.6 11.82C35.5733 11.74 35.58 11.6533 35.62 11.56C35.6467 11.48 35.6667 11.4 35.68 11.32L35.76 11.08C35.7733 11.0533 35.78 11.0067 35.78 10.94C35.7667 10.8867 35.7533 10.84 35.74 10.8L35.7 10.64C35.7133 10.5867 35.7267 10.5467 35.74 10.52C35.7667 10.48 35.7867 10.4333 35.8 10.38C35.7867 10.3533 35.7733 10.32 35.76 10.28C35.7467 10.2267 35.7467 10.1867 35.76 10.16C35.7733 10.0267 35.7667 9.90667 35.74 9.8L35.7 9.44V9.06C35.6733 8.98 35.7 8.9 35.78 8.82C35.8333 8.79333 35.8867 8.77333 35.94 8.76C35.9933 8.73333 36.0467 8.69333 36.1 8.64C36.26 8.53333 36.44 8.48 36.64 8.48H36.9C36.9933 8.48 37.0733 8.48667 37.14 8.5C37.1933 8.47333 37.2267 8.44 37.24 8.4C37.2667 8.36 37.2933 8.32667 37.32 8.3C37.3467 8.24667 37.38 8.20667 37.42 8.18C37.46 8.14 37.4933 8.1 37.52 8.06C37.52 7.99333 37.5133 7.94 37.5 7.9C37.5 7.84667 37.5133 7.79333 37.54 7.74C37.6067 7.63333 37.6333 7.52667 37.62 7.42ZM49.3375 10C49.3775 9.90667 49.4108 9.81333 49.4375 9.72C49.4775 9.61333 49.4908 9.50667 49.4775 9.4C49.4508 9.33333 49.4175 9.26 49.3775 9.18C49.3375 9.08667 49.3042 9 49.2775 8.92C49.2775 8.45333 49.1575 8.04 48.9175 7.68C48.8642 7.61333 48.8042 7.55333 48.7375 7.5C48.6708 7.44667 48.6242 7.37333 48.5975 7.28L48.5575 7.2C48.5442 7.16 48.5242 7.13333 48.4975 7.12C48.4442 7.05333 48.3842 6.99333 48.3175 6.94C48.2642 6.87333 48.2042 6.81333 48.1375 6.76C47.9775 6.64 47.8308 6.55333 47.6975 6.5C47.6042 6.43333 47.4975 6.38 47.3775 6.34C47.2708 6.3 47.1575 6.27333 47.0375 6.26C46.8242 6.24667 46.6042 6.24 46.3775 6.24C46.1508 6.22667 45.9375 6.24667 45.7375 6.3C45.6175 6.27333 45.5108 6.25333 45.4175 6.24L45.1375 6.16L44.8575 6.08C44.7642 6.04 44.6708 6.00667 44.5775 5.98C44.4708 5.99333 44.3575 5.99333 44.2375 5.98C44.1175 5.96667 44.0042 5.98 43.8975 6.02C43.6442 6.07333 43.3908 6.12 43.1375 6.16C42.8842 6.2 42.6308 6.22 42.3775 6.22C42.2842 6.22 42.1908 6.22667 42.0975 6.24C42.0175 6.24 41.9308 6.24667 41.8375 6.26C41.7708 6.28667 41.6975 6.3 41.6175 6.3C41.5508 6.28667 41.4775 6.27333 41.3975 6.26C41.2775 6.23333 41.1708 6.24667 41.0775 6.3C40.9308 6.36667 40.7708 6.42667 40.5975 6.48C40.4375 6.52 40.2775 6.56667 40.1175 6.62H39.9775C39.9508 6.60667 39.9175 6.59333 39.8775 6.58C39.8375 6.55333 39.8042 6.53333 39.7775 6.52C39.7242 6.50667 39.6575 6.51333 39.5775 6.54C39.5375 6.59333 39.5242 6.65333 39.5375 6.72C39.5642 6.78667 39.5642 6.85333 39.5375 6.92C39.5108 6.98667 39.4908 7.06 39.4775 7.14C39.4642 7.20667 39.4442 7.26 39.4175 7.3C39.4442 7.44667 39.4575 7.58667 39.4575 7.72C39.4708 7.85333 39.4842 7.97333 39.4975 8.08C39.4575 8.2 39.4175 8.30667 39.3775 8.4C39.4042 8.45333 39.4242 8.50667 39.4375 8.56C39.4508 8.61333 39.4642 8.67333 39.4775 8.74C39.4508 8.86 39.4175 8.98 39.3775 9.1L39.2975 9.46C39.3242 9.47333 39.3508 9.49333 39.3775 9.52C39.4042 9.53333 39.4175 9.56 39.4175 9.6C39.4042 9.64 39.3775 9.68 39.3375 9.72C39.3108 9.76 39.2842 9.80667 39.2575 9.86C39.2442 10.02 39.2308 10.2867 39.2175 10.66V11.86C39.2308 12.2867 39.2442 12.6667 39.2575 13C39.2575 13.0133 39.2642 13.0333 39.2775 13.06C39.2908 13.0733 39.2975 13.0933 39.2975 13.12C39.3242 13.16 39.3308 13.2067 39.3175 13.26C39.3175 13.3 39.3375 13.3467 39.3775 13.4C39.3642 13.48 39.3508 13.5533 39.3375 13.62C39.3242 13.6733 39.2975 13.7467 39.2575 13.84C39.2575 13.9333 39.2508 14.04 39.2375 14.16C39.2375 14.28 39.2642 14.3933 39.3175 14.5C39.3442 14.5533 39.3575 14.6067 39.3575 14.66V14.82C39.3708 14.9667 39.3842 15.12 39.3975 15.28C39.4108 15.4267 39.4308 15.5733 39.4575 15.72C39.4708 15.7733 39.4775 15.8333 39.4775 15.9C39.4908 15.9667 39.4975 16.0333 39.4975 16.1C39.4842 16.4333 39.4975 16.7733 39.5375 17.12C39.5775 17.4667 39.6108 17.8067 39.6375 18.14V18.16L39.6575 18.18C39.6842 18.26 39.7575 18.3 39.8775 18.3C40.0908 18.2867 40.2975 18.2667 40.4975 18.24C40.6975 18.2133 40.8908 18.1533 41.0775 18.06H41.3375C41.5508 18.0333 41.7508 18.02 41.9375 18.02C42.1375 18.0333 42.3375 18.0733 42.5375 18.14C42.6442 18.1667 42.7175 18.1267 42.7575 18.02C42.7842 17.9667 42.7975 17.9067 42.7975 17.84C42.9042 17.5867 42.9375 17.3333 42.8975 17.08L42.8575 16.88V16.64V16.4C42.8708 16.3067 42.8775 16.22 42.8775 16.14C42.8908 16.1133 42.8975 16.0667 42.8975 16C42.8842 15.8267 42.8842 15.6467 42.8975 15.46C42.9242 15.2733 42.9375 15.0933 42.9375 14.92L43.0175 14.68C43.0442 14.6 43.0642 14.52 43.0775 14.44C43.0908 14.3467 43.1775 14.2667 43.3375 14.2H43.7975L44.3175 14.16H44.5975L44.8375 14.12C44.9842 14.08 45.1242 14.0467 45.2575 14.02C45.3908 13.9933 45.5242 13.9733 45.6575 13.96L46.1775 13.88C46.3508 13.84 46.5175 13.7933 46.6775 13.74C46.9042 13.5933 47.1242 13.4333 47.3375 13.26L47.9775 12.74C48.0042 12.6733 48.0308 12.62 48.0575 12.58C48.0842 12.5267 48.1108 12.48 48.1375 12.44L48.3375 12.28C48.4175 12.2267 48.4842 12.1733 48.5375 12.12C48.5775 12.0533 48.6175 11.98 48.6575 11.9C48.7108 11.82 48.7575 11.7467 48.7975 11.68C48.8242 11.6267 48.8508 11.58 48.8775 11.54C48.9175 11.5 48.9508 11.4533 48.9775 11.4C49.0042 11.3467 49.0242 11.3 49.0375 11.26C49.0642 11.2067 49.0708 11.1533 49.0575 11.1C49.0575 11.02 49.0242 10.9533 48.9575 10.9C48.9042 10.8467 48.8842 10.7733 48.8975 10.68C48.9242 10.64 48.9508 10.5867 48.9775 10.52C49.0042 10.4533 49.0308 10.3933 49.0575 10.34C49.0975 10.2867 49.1042 10.2267 49.0775 10.16C49.0642 10.0933 49.0842 10.0467 49.1375 10.02C49.1908 10.0067 49.2575 10 49.3375 10ZM46.0975 9.2L46.1775 9.44C46.2175 9.52 46.2442 9.6 46.2575 9.68C46.2575 9.77333 46.2375 9.86 46.1975 9.94C46.1708 10.0067 46.1442 10.08 46.1175 10.16C46.1042 10.2533 46.0842 10.34 46.0575 10.42C46.0442 10.5 46.0242 10.5867 45.9975 10.68L45.7775 10.9L45.5375 11.1C45.4842 11.1133 45.4242 11.1267 45.3575 11.14C45.3042 11.14 45.2442 11.1467 45.1775 11.16L44.9375 11.36C44.8708 11.4267 44.7975 11.4933 44.7175 11.56C44.6242 11.5867 44.5442 11.5933 44.4775 11.58C44.3442 11.54 44.1975 11.5133 44.0375 11.5C43.8908 11.4867 43.7442 11.46 43.5975 11.42C43.4508 11.3933 43.2975 11.3867 43.1375 11.4C42.9775 11.4 42.8042 11.4133 42.6175 11.44C42.6042 11.4133 42.5908 11.38 42.5775 11.34C42.5642 11.3 42.5575 11.2733 42.5575 11.26C42.5442 11.18 42.5375 11.1 42.5375 11.02C42.5508 10.9267 42.5575 10.84 42.5575 10.76C42.5708 10.6133 42.5775 10.4733 42.5775 10.34C42.5908 10.1933 42.6042 10.0533 42.6175 9.92C42.6175 9.85333 42.6242 9.79333 42.6375 9.74C42.6642 9.67333 42.6842 9.61333 42.6975 9.56C42.7375 9.46667 42.7908 9.39333 42.8575 9.34C42.9242 9.28667 42.9975 9.24 43.0775 9.2C43.1175 9.2 43.1575 9.19333 43.1975 9.18C43.2375 9.16667 43.2775 9.17333 43.3175 9.2C43.3708 9.2 43.4375 9.21333 43.5175 9.24C43.6642 9.09333 43.8642 8.99333 44.1175 8.94C44.2242 8.92667 44.3308 8.92667 44.4375 8.94C44.5575 8.94 44.6642 8.94667 44.7575 8.96C44.8242 9 44.8775 9.04 44.9175 9.08C44.9708 9.10667 45.0175 9.13333 45.0575 9.16H45.2975C45.3642 9.14667 45.4242 9.14 45.4775 9.14L45.6775 9.1C45.7042 9.07333 45.7308 9.05333 45.7575 9.04C45.7842 9.02667 45.8108 9.00667 45.8375 8.98C45.9175 8.95333 45.9708 8.97333 45.9975 9.04C46.0108 9.05333 46.0242 9.07333 46.0375 9.1C46.0642 9.12667 46.0842 9.16 46.0975 9.2ZM57.8934 7.42C57.8934 7.31333 57.8734 7.21333 57.8334 7.12C57.8201 7.06667 57.8068 7.02667 57.7934 7C57.7934 6.96 57.7868 6.92667 57.7734 6.9C57.7734 6.82 57.7801 6.77333 57.7934 6.76C57.9134 6.53333 57.8668 6.31333 57.6534 6.1C57.6268 6.07333 57.5868 6.04 57.5334 6C57.4934 5.94667 57.4268 5.91333 57.3334 5.9H57.2334C57.1934 5.88667 57.1401 5.88667 57.0734 5.9C56.8734 5.91333 56.6468 5.9 56.3934 5.86C56.2734 5.83333 56.1534 5.82 56.0334 5.82C55.9268 5.80667 55.8068 5.8 55.6734 5.8C55.6468 5.8 55.6068 5.80667 55.5534 5.82C55.5134 5.83333 55.4734 5.84 55.4334 5.84C55.3801 5.84 55.3134 5.83333 55.2334 5.82C55.1668 5.80667 55.0868 5.79333 54.9934 5.78C54.9668 5.79333 54.9334 5.80667 54.8934 5.82C54.8534 5.83333 54.8068 5.84667 54.7534 5.86C54.5001 5.92667 54.2868 5.93333 54.1134 5.88C53.9934 5.84 53.8734 5.83333 53.7534 5.86C53.6334 5.87333 53.5201 5.89333 53.4134 5.92C53.3068 5.93333 53.2001 5.95333 53.0934 5.98C52.9868 5.99333 52.8734 6 52.7534 6H52.4134C52.3601 6 52.3134 6.00667 52.2734 6.02H52.1734C52.0934 6.06 52.0134 6.09333 51.9334 6.12C51.8668 6.14667 51.8068 6.19333 51.7534 6.26C51.7401 6.28667 51.6868 6.30667 51.5934 6.32C51.5001 6.32 51.4401 6.33333 51.4134 6.36C51.4001 6.41333 51.3934 6.47333 51.3934 6.54C51.4068 6.59333 51.4001 6.63333 51.3734 6.66C51.3201 6.71333 51.2934 6.78667 51.2934 6.88C51.2934 6.96 51.2734 7.03333 51.2334 7.1C51.1934 7.18 51.1934 7.23333 51.2334 7.26C51.2734 7.28667 51.2668 7.33333 51.2134 7.4C51.2401 7.46667 51.2401 7.54667 51.2134 7.64C51.1868 7.72 51.1868 7.78667 51.2134 7.84C51.2534 7.88 51.2668 7.94667 51.2534 8.04C51.2534 8.13333 51.2801 8.21333 51.3334 8.28C51.4401 8.32 51.5468 8.34 51.6534 8.34C51.7734 8.32667 51.8801 8.34667 51.9734 8.4H52.2334C52.3134 8.4 52.3868 8.41333 52.4534 8.44C52.5201 8.45333 52.5934 8.45333 52.6734 8.44C52.7534 8.41333 52.8268 8.43333 52.8934 8.5C52.9201 8.58 52.9401 8.66 52.9534 8.74L52.9934 8.98C52.9934 9.07333 52.9868 9.13333 52.9734 9.16C52.9734 9.21333 52.9868 9.26 53.0134 9.3C53.0401 9.32667 53.0534 9.36667 53.0534 9.42V9.72C53.0401 9.85333 53.0668 10 53.1334 10.16C53.1468 10.1867 53.1534 10.2267 53.1534 10.28C53.1401 10.3467 53.1201 10.4067 53.0934 10.46C53.0801 10.5133 53.0668 10.5733 53.0534 10.64L53.0934 10.84L53.1334 11.04L52.9934 11.3C53.0068 11.6067 53.0134 11.9133 53.0134 12.22C53.0268 12.5133 53.0201 12.8133 52.9934 13.12V13.38C53.0068 13.5133 53.0068 13.64 52.9934 13.76C52.9801 13.88 53.0001 14.0067 53.0534 14.14V14.2C53.0401 14.3467 53.0334 14.5 53.0334 14.66V15.1C53.0334 15.14 53.0201 15.2 52.9934 15.28C52.8201 15.4133 52.6668 15.52 52.5334 15.6C52.4534 15.5733 52.3801 15.5467 52.3134 15.52L52.1134 15.44C52.0601 15.48 52.0134 15.52 51.9734 15.56C51.9334 15.5867 51.8868 15.6133 51.8334 15.64C51.7268 15.6133 51.6201 15.6133 51.5134 15.64C51.4068 15.6533 51.3001 15.6733 51.1934 15.7V15.94C51.1668 16.06 51.1401 16.1867 51.1134 16.32C51.1001 16.44 51.1068 16.56 51.1334 16.68C51.1468 16.7467 51.1334 16.8133 51.0934 16.88C51.0668 16.9867 51.0668 17.0933 51.0934 17.2C51.1334 17.32 51.1601 17.4467 51.1734 17.58C51.2401 17.6333 51.3068 17.6933 51.3734 17.76C51.4534 17.8267 51.5068 17.9067 51.5334 18C51.5868 18.08 51.6468 18.1533 51.7134 18.22C51.7801 18.3 51.8468 18.3867 51.9134 18.48C52.2468 18.4667 52.5734 18.4533 52.8934 18.44C53.2134 18.4267 53.5334 18.3933 53.8534 18.34C53.9201 18.3667 53.9734 18.3867 54.0134 18.4C54.0668 18.4133 54.1201 18.4333 54.1734 18.46C54.2801 18.46 54.3868 18.4467 54.4934 18.42C54.6001 18.3933 54.7068 18.3933 54.8134 18.42C54.9201 18.4333 55.0134 18.42 55.0934 18.38C55.1868 18.3533 55.2801 18.3333 55.3734 18.32C55.5734 18.32 55.8001 18.3 56.0534 18.26L56.3334 18.3L56.6534 18.34H56.7134C56.8601 18.2333 56.9401 18.1533 56.9534 18.1C56.9801 18.06 56.9934 17.9667 56.9934 17.82C56.9534 17.5133 56.9334 17.2133 56.9334 16.92C56.9334 16.6133 56.9468 16.3133 56.9734 16.02C56.9868 15.9133 56.9868 15.8067 56.9734 15.7C56.9734 15.5933 56.9934 15.4933 57.0334 15.4C57.1268 15.24 57.0668 15.1333 56.8534 15.08C56.7201 15.04 56.6001 14.96 56.4934 14.84C56.4668 14.8133 56.4334 14.8 56.3934 14.8C56.3534 14.8133 56.3134 14.8333 56.2734 14.86C56.2468 14.8867 56.2201 14.9067 56.1934 14.92C56.0734 14.92 55.9868 14.86 55.9334 14.74C55.8134 14.38 55.7534 14.0267 55.7534 13.68C55.7668 13.4133 55.7868 13.1467 55.8134 12.88C55.8401 12.6133 55.8534 12.34 55.8534 12.06C55.8934 11.98 55.9001 11.9 55.8734 11.82C55.8468 11.74 55.8534 11.6533 55.8934 11.56C55.9201 11.48 55.9401 11.4 55.9534 11.32L56.0334 11.08C56.0468 11.0533 56.0534 11.0067 56.0534 10.94C56.0401 10.8867 56.0268 10.84 56.0134 10.8L55.9734 10.64C55.9868 10.5867 56.0001 10.5467 56.0134 10.52C56.0401 10.48 56.0601 10.4333 56.0734 10.38C56.0601 10.3533 56.0468 10.32 56.0334 10.28C56.0201 10.2267 56.0201 10.1867 56.0334 10.16C56.0468 10.0267 56.0401 9.90667 56.0134 9.8L55.9734 9.44V9.06C55.9468 8.98 55.9734 8.9 56.0534 8.82C56.1068 8.79333 56.1601 8.77333 56.2134 8.76C56.2668 8.73333 56.3201 8.69333 56.3734 8.64C56.5334 8.53333 56.7134 8.48 56.9134 8.48H57.1734C57.2668 8.48 57.3468 8.48667 57.4134 8.5C57.4668 8.47333 57.5001 8.44 57.5134 8.4C57.5401 8.36 57.5668 8.32667 57.5934 8.3C57.6201 8.24667 57.6534 8.20667 57.6934 8.18C57.7334 8.14 57.7668 8.1 57.7934 8.06C57.7934 7.99333 57.7868 7.94 57.7734 7.9C57.7734 7.84667 57.7868 7.79333 57.8134 7.74C57.8801 7.63333 57.9068 7.52667 57.8934 7.42ZM71.1109 7.6C71.0976 7.45333 71.1176 7.30667 71.1709 7.16C71.2109 7.06667 71.2176 6.97333 71.1909 6.88C71.1776 6.78667 71.1443 6.7 71.0909 6.62C71.0643 6.58 71.0376 6.55333 71.0109 6.54C70.9976 6.51333 70.9776 6.49333 70.9509 6.48C70.8843 6.49333 70.8176 6.52 70.7509 6.56C70.6976 6.58667 70.6376 6.61333 70.5709 6.64C70.5576 6.62667 70.5376 6.62667 70.5109 6.64C70.4976 6.64 70.4776 6.63333 70.4509 6.62C70.3576 6.55333 70.2643 6.51333 70.1709 6.5C70.0776 6.47333 69.9843 6.45333 69.8909 6.44H69.2309C69.2043 6.44 69.1776 6.43333 69.1509 6.42C69.1376 6.40667 69.1176 6.4 69.0909 6.4C68.9976 6.33333 68.9109 6.26667 68.8309 6.2C68.7643 6.17333 68.6976 6.16 68.6309 6.16C68.5643 6.16 68.4976 6.18 68.4309 6.22C68.3776 6.26 68.3176 6.29333 68.2509 6.32C68.1976 6.33333 68.1443 6.37333 68.0909 6.44C68.0909 6.45333 68.0843 6.46 68.0709 6.46V6.48C67.9909 6.77333 67.9376 7.06 67.9109 7.34C67.8843 7.62 67.8776 7.90667 67.8909 8.2L67.9309 8.8C67.9443 8.98667 67.9443 9.18667 67.9309 9.4C67.9576 9.50667 67.9643 9.62667 67.9509 9.76L67.9109 10.12C67.8976 10.2933 67.8709 10.46 67.8309 10.62C67.7909 10.78 67.7576 10.94 67.7309 11.1C67.7309 11.1533 67.7243 11.2 67.7109 11.24C67.6976 11.28 67.6976 11.32 67.7109 11.36C67.7243 11.4667 67.7043 11.5667 67.6509 11.66C67.6109 11.74 67.5576 11.8267 67.4909 11.92C67.4776 11.92 67.4509 11.9267 67.4109 11.94C67.3843 11.94 67.3576 11.9333 67.3309 11.92C67.2643 11.88 67.2043 11.84 67.1509 11.8C67.0976 11.7467 67.0376 11.7 66.9709 11.66C66.9043 11.5267 66.8376 11.4067 66.7709 11.3C66.7043 11.18 66.6176 11.0733 66.5109 10.98C66.4976 10.9667 66.4776 10.96 66.4509 10.96C66.4376 10.9467 66.4176 10.9333 66.3909 10.92C66.3376 10.9067 66.2709 10.9 66.1909 10.9C66.1243 10.8867 66.0643 10.84 66.0109 10.76C65.9709 10.68 65.9309 10.5867 65.8909 10.48C65.8509 10.3733 65.8043 10.2667 65.7509 10.16C65.6043 10.0533 65.4776 9.92 65.3709 9.76C65.2776 9.6 65.1709 9.44 65.0509 9.28C64.9176 9.21333 64.7843 9.14 64.6509 9.06C64.5176 8.98 64.3976 8.88667 64.2909 8.78C64.2509 8.71333 64.1909 8.66 64.1109 8.62C64.0443 8.58 63.9776 8.53333 63.9109 8.48C63.8443 8.30667 63.7509 8.14 63.6309 7.98C63.5109 7.82 63.4109 7.64667 63.3309 7.46C63.2909 7.35333 63.2243 7.26667 63.1309 7.2C63.0509 7.12 62.9576 7.05333 62.8509 7L62.6109 6.96L62.4109 6.92C62.2776 6.93333 62.1576 6.94667 62.0509 6.96C61.9576 6.97333 61.8576 6.98 61.7509 6.98C61.6176 6.98 61.4909 6.98667 61.3709 7C61.2643 7.01333 61.1576 7.04 61.0509 7.08C60.9709 7.06667 60.8976 7.05333 60.8309 7.04L60.6709 7C60.5776 7.02667 60.5243 7.04667 60.5109 7.06C60.3909 7.14 60.2643 7.21333 60.1309 7.28C60.0109 7.33333 59.8776 7.37333 59.7309 7.4C59.6643 7.41333 59.5976 7.47333 59.5309 7.58C59.5309 7.71333 59.5709 7.83333 59.6509 7.94C59.7309 8.03333 59.7776 8.13333 59.7909 8.24C59.7776 8.33333 59.7376 8.41333 59.6709 8.48C59.6043 8.53333 59.5576 8.6 59.5309 8.68C59.5176 8.77333 59.5243 8.86667 59.5509 8.96C59.5909 9.05333 59.5976 9.14 59.5709 9.22L59.6509 9.5L59.7309 9.78C59.7176 9.84667 59.7043 9.92 59.6909 10C59.6909 10.0667 59.6843 10.1333 59.6709 10.2C59.6576 10.32 59.6843 10.4467 59.7509 10.58C59.7643 10.6067 59.7709 10.6467 59.7709 10.7V12.78C59.7043 12.8867 59.6509 13.0067 59.6109 13.14C59.5709 13.2733 59.5376 13.4067 59.5109 13.54C59.5109 13.6067 59.5176 13.68 59.5309 13.76C59.5576 13.84 59.5576 13.92 59.5309 14V14.22C59.5309 14.3 59.5243 14.38 59.5109 14.46C59.4976 14.54 59.5109 14.62 59.5509 14.7C59.5909 14.7667 59.6176 14.8333 59.6309 14.9V15.1C59.6309 15.2467 59.6243 15.3933 59.6109 15.54V15.98C59.6243 16.18 59.6243 16.3867 59.6109 16.6C59.6109 16.8 59.6176 17.0133 59.6309 17.24C59.6443 17.2533 59.6509 17.28 59.6509 17.32C59.6643 17.36 59.6776 17.3933 59.6909 17.42C59.7576 17.4467 59.8243 17.4667 59.8909 17.48C59.9576 17.4933 60.0243 17.5133 60.0909 17.54C60.1576 17.5533 60.2243 17.5867 60.2909 17.64C60.3709 17.68 60.4443 17.7133 60.5109 17.74C60.6309 17.74 60.7576 17.7467 60.8909 17.76C61.0243 17.76 61.1576 17.7933 61.2909 17.86C61.4376 17.9267 61.5843 17.9733 61.7309 18C61.8776 18.0133 62.0109 18.0533 62.1309 18.12C62.1843 18.1067 62.2243 18.1 62.2509 18.1C62.5309 17.9933 62.6643 17.8067 62.6509 17.54C62.6376 17.4333 62.6376 17.3333 62.6509 17.24C62.6643 17.1333 62.6776 17.0333 62.6909 16.94C62.7176 16.82 62.7509 16.7133 62.7909 16.62C62.7243 16.4333 62.6776 16.2467 62.6509 16.06C62.6243 15.8733 62.6376 15.6867 62.6909 15.5L62.8909 15.14V14.72C62.8909 14.5733 62.8976 14.4333 62.9109 14.3C62.9376 14.1533 62.9443 14.0067 62.9309 13.86C62.9176 13.7133 62.9376 13.5733 62.9909 13.44L63.1109 13.36C63.1509 13.3333 63.1843 13.3067 63.2109 13.28C63.2376 13.24 63.2443 13.2 63.2309 13.16C63.2176 13.12 63.2109 13.08 63.2109 13.04C63.2109 12.8533 63.2509 12.7 63.3309 12.58C63.3443 12.5533 63.3643 12.54 63.3909 12.54C63.4176 12.54 63.4443 12.5333 63.4709 12.52C63.5909 12.7067 63.7243 12.88 63.8709 13.04C64.0176 13.2 64.1443 13.3733 64.2509 13.56C64.3043 13.64 64.3576 13.7133 64.4109 13.78C64.4643 13.8467 64.4976 13.9267 64.5109 14.02C64.5909 14.1 64.6643 14.1867 64.7309 14.28C64.8109 14.36 64.8909 14.4333 64.9709 14.5C65.0509 14.5933 65.1243 14.7 65.1909 14.82C65.2576 14.9533 65.3309 15.0867 65.4109 15.22C65.4909 15.3533 65.5643 15.4933 65.6309 15.64C65.7243 15.72 65.7976 15.8133 65.8509 15.92C65.9176 16.0267 65.9976 16.12 66.0909 16.2C66.1976 16.2933 66.2776 16.4 66.3309 16.52C66.3843 16.64 66.4576 16.7533 66.5509 16.86C66.6176 16.9133 66.6909 16.9533 66.7709 16.98C66.8509 17.0067 66.9176 17.06 66.9709 17.14C66.9843 17.2333 66.9843 17.3267 66.9709 17.42C66.9709 17.5133 66.9976 17.6133 67.0509 17.72L67.2509 17.9C67.2776 17.8867 67.3109 17.8733 67.3509 17.86C67.3909 17.8467 67.4243 17.8333 67.4509 17.82C67.5176 17.8333 67.5776 17.8467 67.6309 17.86C67.6976 17.86 67.7576 17.8667 67.8109 17.88C67.8776 17.8933 67.9443 17.9 68.0109 17.9C68.0909 17.9 68.1776 17.9133 68.2709 17.94C68.4576 17.9 68.6443 17.8667 68.8309 17.84C69.0176 17.8 69.2043 17.7533 69.3909 17.7L69.5709 17.58C69.6243 17.54 69.6709 17.5133 69.7109 17.5C69.8176 17.4867 69.9176 17.4733 70.0109 17.46L70.3309 17.42L70.4709 17.28C70.4576 17.2533 70.4509 17.2067 70.4509 17.14C70.4509 17.06 70.4576 16.9933 70.4709 16.94C70.5643 16.6867 70.6176 16.4267 70.6309 16.16C70.6576 15.8933 70.6776 15.6333 70.6909 15.38C70.6509 15.2467 70.6643 15.1 70.7309 14.94C70.7709 14.7933 70.7909 14.66 70.7909 14.54C70.7643 14.42 70.7509 14.3 70.7509 14.18L70.7909 13.82C70.8043 13.6733 70.8109 13.5333 70.8109 13.4L70.8509 13C70.8109 12.84 70.8109 12.68 70.8509 12.52C70.9043 12.36 70.9309 12.2 70.9309 12.04C70.9976 11.88 71.0376 11.72 71.0509 11.56C71.0776 11.3867 71.1043 11.2333 71.1309 11.1C71.1176 10.9933 71.1043 10.8933 71.0909 10.8C71.0776 10.7067 71.0709 10.6133 71.0709 10.52C71.0576 10.4267 71.0509 10.3333 71.0509 10.24C71.0643 10.1333 71.0709 10.0267 71.0709 9.92V9.28C71.0709 9.05333 71.0509 8.82667 71.0109 8.6L71.0909 8.36C71.1176 8.28 71.1376 8.20667 71.1509 8.14V8.04L71.1109 7.6ZM80.8117 12.66C80.8384 12.5933 80.8584 12.5267 80.8717 12.46C80.8051 12.38 80.7517 12.2867 80.7117 12.18V11.58C80.6451 11.5133 80.5784 11.4533 80.5117 11.4C80.4451 11.3467 80.3784 11.2867 80.3117 11.22C80.2984 11.1667 80.2584 11.1333 80.1917 11.12C80.1384 11.0933 80.0784 11.0733 80.0117 11.06C79.8517 11.0333 79.6917 11.02 79.5317 11.02C79.3717 11.0067 79.2051 11.0133 79.0317 11.04C78.9784 11.0667 78.9184 11.0933 78.8517 11.12L78.6917 11.2C78.6384 11.2133 78.5784 11.2267 78.5117 11.24H78.3317C78.2651 11.24 78.1984 11.2533 78.1317 11.28C78.0784 11.2933 78.0117 11.2867 77.9317 11.26C77.785 11.0733 77.7384 10.8533 77.7917 10.6L77.8717 10.44C77.8984 10.3867 77.9317 10.34 77.9717 10.3C77.9851 10.2333 77.9917 10.1733 77.9917 10.12L78.0117 10.04C78.0517 9.93333 78.0784 9.86667 78.0917 9.84C78.105 9.8 78.1117 9.74667 78.1117 9.68C78.1117 9.62667 78.1184 9.57333 78.1317 9.52C78.1584 9.46667 78.1517 9.43333 78.1117 9.42C78.0051 9.38 77.9784 9.32 78.0317 9.24C78.0851 9.17333 78.1384 9.12 78.1917 9.08C78.2317 9.04 78.2717 9.00667 78.3117 8.98C78.3517 8.95333 78.3917 8.91333 78.4317 8.86V8.62L78.4717 8.38C78.4984 8.35333 78.5184 8.32667 78.5317 8.3L78.5917 8.24C78.8317 8.01333 79.0984 7.94 79.3917 8.02C79.4851 8.03333 79.5784 8.03333 79.6717 8.02C79.8451 7.95333 80.0317 7.99333 80.2317 8.14H80.3317L80.3917 8.08C80.4184 7.97333 80.4384 7.86667 80.4517 7.76C80.4784 7.65333 80.5317 7.55333 80.6117 7.46C80.6251 7.43333 80.6317 7.4 80.6317 7.36C80.6317 7.29333 80.6384 7.23333 80.6517 7.18C80.6784 7.11333 80.6984 7.05333 80.7117 7C80.7384 6.90667 80.7517 6.82 80.7517 6.74C80.7517 6.64667 80.7384 6.55333 80.7117 6.46C80.6584 6.34 80.6184 6.22667 80.5917 6.12C80.5651 6.01333 80.5384 5.9 80.5117 5.78C80.5117 5.74 80.5051 5.7 80.4917 5.66C80.4784 5.62 80.4717 5.58667 80.4717 5.56C80.4184 5.52 80.3651 5.48667 80.3117 5.46L80.1517 5.38C80.0984 5.34 80.0517 5.30667 80.0117 5.28L79.8917 5.16C79.785 5.21333 79.6651 5.21333 79.5317 5.16C79.2517 5.08 78.9784 5.1 78.7117 5.22L78.5517 5.26C78.5117 5.27333 78.465 5.28667 78.4117 5.3C78.3184 5.26 78.2251 5.25333 78.1317 5.28C78.0384 5.30667 77.9451 5.32667 77.8517 5.34C77.7984 5.39333 77.7517 5.42667 77.7117 5.44C77.6851 5.45333 77.6517 5.47333 77.6117 5.5C77.5717 5.51333 77.5384 5.53333 77.5117 5.56H77.0717L76.7917 5.76C76.7117 5.81333 76.6384 5.88667 76.5717 5.98C76.5451 6.02 76.5117 6.06 76.4717 6.1C76.4451 6.12667 76.4051 6.15333 76.3517 6.18C76.3117 6.22 76.2651 6.26 76.2117 6.3C76.1717 6.32667 76.1384 6.35333 76.1117 6.38C76.0717 6.43333 76.0384 6.48667 76.0117 6.54C75.9851 6.59333 75.9517 6.64667 75.9117 6.7C75.8851 6.75333 75.8717 6.81333 75.8717 6.88C75.8851 6.94667 75.8784 7.00667 75.8517 7.06L75.6517 7.34C75.5984 7.43333 75.5517 7.52 75.5117 7.6C75.4984 7.69333 75.4851 7.78 75.4717 7.86C75.4584 7.94 75.4584 8.01333 75.4717 8.08C75.4717 8.17333 75.4584 8.26667 75.4317 8.36C75.4051 8.44 75.3851 8.52 75.3717 8.6C75.3584 8.84 75.2784 9.07333 75.1317 9.3L75.0917 9.38C75.0917 9.40667 75.0851 9.43333 75.0717 9.46C75.1384 9.79333 75.1517 10.1267 75.1117 10.46C75.0717 10.78 74.9784 11.0933 74.8317 11.4C74.6184 11.4667 74.465 11.5267 74.3717 11.58C74.2917 11.62 74.1584 11.7133 73.9717 11.86C73.9317 11.8733 73.8851 11.9067 73.8317 11.96C73.6851 12.0133 73.5317 12.0733 73.3717 12.14C73.2251 12.1933 73.0651 12.22 72.8917 12.22C72.8784 12.22 72.8517 12.2533 72.8117 12.32C72.8651 12.5067 72.8917 12.64 72.8917 12.72C72.9051 12.7867 72.8984 12.94 72.8717 13.18V13.34C72.8984 13.4333 72.9117 13.5333 72.9117 13.64V13.98L72.9717 14.6L73.0517 14.68C73.1984 14.6667 73.3517 14.6867 73.5117 14.74C73.6717 14.78 73.8384 14.7933 74.0117 14.78C74.0784 14.7667 74.1451 14.7333 74.2117 14.68C74.2917 14.6267 74.3784 14.6067 74.4717 14.62C74.4984 14.6333 74.5317 14.6533 74.5717 14.68C74.6117 14.6933 74.6384 14.72 74.6517 14.76C74.7051 14.8 74.7317 14.8667 74.7317 14.96C74.745 15.08 74.7517 15.2 74.7517 15.32C74.7517 15.4267 74.7384 15.54 74.7117 15.66C74.7117 15.6733 74.7051 15.7 74.6917 15.74C74.6917 15.7667 74.6984 15.7933 74.7117 15.82C74.7384 15.9133 74.7517 16.0067 74.7517 16.1C74.7517 16.1933 74.7784 16.28 74.8317 16.36C74.8717 16.4 74.8917 16.4667 74.8917 16.56C74.8917 16.6667 74.8984 16.7867 74.9117 16.92C74.9384 17.04 74.9384 17.16 74.9117 17.28C74.8984 17.3867 74.8917 17.5 74.8917 17.62V17.94C74.8917 17.98 74.8984 18.02 74.9117 18.06C74.925 18.1133 74.9384 18.16 74.9517 18.2C74.965 18.24 74.9984 18.28 75.0517 18.32C75.1184 18.36 75.1784 18.3667 75.2317 18.34C75.285 18.3133 75.3251 18.2867 75.3517 18.26C75.3917 18.2333 75.4384 18.2067 75.4917 18.18C75.6117 18.2467 75.7251 18.2533 75.8317 18.2C75.9784 18.16 76.1251 18.14 76.2717 18.14C76.3251 18.1267 76.3784 18.12 76.4317 18.12C76.4984 18.12 76.5584 18.1133 76.6117 18.1C76.745 18.06 76.8717 18.0333 76.9917 18.02C77.1117 18.02 77.2317 18.0133 77.3517 18C77.4184 17.9333 77.4584 17.8667 77.4717 17.8C77.4984 17.72 77.5051 17.64 77.4917 17.56C77.4917 17.52 77.4851 17.48 77.4717 17.44C77.4717 17.3867 77.4784 17.3333 77.4917 17.28C77.5317 17.16 77.5384 17.0267 77.5117 16.88C77.4984 16.84 77.4851 16.8067 77.4717 16.78C77.4717 16.74 77.4784 16.7 77.4917 16.66C77.5184 16.5667 77.5184 16.48 77.4917 16.4C77.4784 16.3067 77.4584 16.2133 77.4317 16.12C77.5384 15.8667 77.5384 15.6133 77.4317 15.36C77.4184 15.3067 77.4117 15.2533 77.4117 15.2C77.4117 15.1467 77.4051 15.1 77.3917 15.06C77.3784 14.9933 77.3651 14.9333 77.3517 14.88L77.3117 14.72C77.3384 14.6933 77.3584 14.6667 77.3717 14.64C77.3984 14.6 77.4184 14.5667 77.4317 14.54C77.4851 14.5267 77.5384 14.5267 77.5917 14.54C77.6451 14.54 77.6851 14.5333 77.7117 14.52C77.7784 14.4933 77.8384 14.4867 77.8917 14.5C77.9584 14.5133 78.0251 14.5133 78.0917 14.5C78.1317 14.4867 78.1784 14.4733 78.2317 14.46L78.3917 14.42L78.4517 14.3C78.4784 14.26 78.4984 14.2267 78.5117 14.2C78.5784 14.1733 78.6384 14.1667 78.6917 14.18C78.7584 14.18 78.8184 14.16 78.8717 14.12C78.9917 14.0267 79.1517 14 79.3517 14.04C79.4184 14.0133 79.4851 13.9933 79.5517 13.98C79.6184 13.9667 79.6984 13.9467 79.7917 13.92C79.8451 13.84 79.8984 13.7733 79.9517 13.72C80.0984 13.6267 80.2184 13.5733 80.3117 13.56C80.4184 13.5333 80.5184 13.5 80.6117 13.46C80.7317 13.3933 80.8117 13.28 80.8517 13.12C80.7984 13.0533 80.7717 12.9733 80.7717 12.88C80.785 12.7867 80.7984 12.7133 80.8117 12.66ZM91.3397 12.98C91.393 12.8467 91.3997 12.7 91.3597 12.54C91.3064 12.42 91.2664 12.2933 91.2397 12.16C91.2264 12.0267 91.2064 11.9 91.1797 11.78C91.1397 11.7267 91.0997 11.68 91.0597 11.64C91.033 11.6 91.013 11.56 90.9997 11.52C90.973 11.4133 90.933 11.3133 90.8797 11.22C90.8264 11.1267 90.7864 11.0333 90.7597 10.94C90.7464 10.8733 90.7197 10.82 90.6797 10.78L90.5597 10.66C90.5464 10.6333 90.5264 10.6 90.4997 10.56C90.4864 10.52 90.4664 10.4867 90.4397 10.46C90.413 10.3933 90.373 10.3333 90.3197 10.28L90.1597 10.12C90.1197 10.0533 90.073 9.98667 90.0197 9.92C89.9797 9.85333 89.9464 9.79333 89.9197 9.74C89.8664 9.71333 89.813 9.7 89.7597 9.7C89.7064 9.7 89.6597 9.69333 89.6197 9.68C89.5397 9.62667 89.4997 9.56667 89.4997 9.5C89.4864 9.46 89.4797 9.42 89.4797 9.38V9.26C89.3464 9.15333 89.1997 9.04667 89.0397 8.94C88.893 8.83333 88.7264 8.77333 88.5397 8.76C88.4864 8.74667 88.4397 8.72667 88.3997 8.7C88.3597 8.67333 88.3197 8.65333 88.2797 8.64C88.2264 8.58667 88.173 8.54667 88.1197 8.52C88.0797 8.48 88.0264 8.43333 87.9597 8.38C87.893 8.38 87.8197 8.38667 87.7397 8.4H87.5397C87.393 8.41333 87.2397 8.42 87.0797 8.42C86.933 8.42 86.7864 8.39333 86.6397 8.34H86.4597C86.3664 8.32667 86.2664 8.32 86.1597 8.32H85.8397L85.4397 8.44C85.3197 8.46667 85.1997 8.52 85.0797 8.6C84.9597 8.64 84.8397 8.69333 84.7197 8.76C84.5997 8.82667 84.4864 8.89333 84.3797 8.96C84.3397 8.97333 84.2997 8.99333 84.2597 9.02C84.233 9.04667 84.1997 9.06667 84.1597 9.08C84.1464 9.09333 84.1264 9.13333 84.0997 9.2C84.0997 9.24 84.1064 9.29333 84.1197 9.36C84.133 9.41333 84.1197 9.48 84.0797 9.56C84.053 9.58667 84.0197 9.62667 83.9797 9.68C83.9397 9.72 83.893 9.77333 83.8397 9.84C83.7597 9.92 83.6997 10.0133 83.6597 10.12C83.6197 10.1733 83.5797 10.2333 83.5397 10.3C83.513 10.3533 83.4864 10.4133 83.4597 10.48C83.433 10.5333 83.3997 10.58 83.3597 10.62C83.3197 10.66 83.273 10.7133 83.2197 10.78C83.233 10.8733 83.2264 10.9667 83.1997 11.06C83.173 11.1533 83.133 11.2533 83.0797 11.36C83.0664 11.3733 83.0597 11.4 83.0597 11.44V11.54C83.0064 11.6333 82.9664 11.72 82.9397 11.8L82.8597 12.04C82.833 12.1067 82.8064 12.18 82.7797 12.26C82.753 12.3267 82.7264 12.4 82.6997 12.48C82.673 12.56 82.653 12.64 82.6397 12.72C82.6264 12.8 82.6064 12.8867 82.5797 12.98C82.5397 13.06 82.5264 13.1467 82.5397 13.24C82.5664 13.3333 82.573 13.42 82.5597 13.5C82.5464 13.5933 82.5464 13.6867 82.5597 13.78C82.573 13.8733 82.5664 13.9667 82.5397 14.06C82.5264 14.1133 82.5197 14.1667 82.5197 14.22C82.533 14.26 82.5397 14.3 82.5397 14.34C82.5397 14.3933 82.553 14.44 82.5797 14.48L82.6597 14.6C82.633 14.68 82.613 14.7333 82.5997 14.76L82.6797 14.92C82.7197 14.96 82.753 15.0067 82.7797 15.06C82.873 15.1933 82.953 15.3467 83.0197 15.52C83.0997 15.7733 83.2197 15.9867 83.3797 16.16C83.553 16.3333 83.7464 16.4933 83.9597 16.64C83.9997 16.68 84.0397 16.7133 84.0797 16.74C84.1197 16.7533 84.1597 16.7733 84.1997 16.8C84.2264 16.8267 84.2464 16.8533 84.2597 16.88C84.2864 16.8933 84.3064 16.9133 84.3197 16.94C84.3597 17.0067 84.413 17.0733 84.4797 17.14C84.5464 17.2067 84.6197 17.2533 84.6997 17.28C84.8064 17.3333 84.9064 17.3933 84.9997 17.46C85.1064 17.5267 85.2197 17.5867 85.3397 17.64C85.4464 17.6533 85.5464 17.6667 85.6397 17.68L85.9197 17.72C85.9597 17.7067 86.0064 17.6933 86.0597 17.68C86.113 17.6667 86.1664 17.6667 86.2197 17.68C86.393 17.72 86.5597 17.7333 86.7197 17.72C86.7464 17.7067 86.7797 17.7067 86.8197 17.72C86.8597 17.7333 86.893 17.74 86.9197 17.74C87.0397 17.7133 87.153 17.68 87.2597 17.64C87.3664 17.5867 87.4797 17.5533 87.5997 17.54C87.9597 17.4733 88.253 17.3533 88.4797 17.18C88.6264 17.0733 88.7664 16.9667 88.8997 16.86C89.0464 16.7533 89.193 16.6533 89.3397 16.56C89.3397 16.3733 89.4397 16.28 89.6397 16.28C89.6664 16.2667 89.693 16.2667 89.7197 16.28C89.7597 16.28 89.793 16.2733 89.8197 16.26C89.8864 16.22 89.9464 16.1867 89.9997 16.16C90.053 16.1333 90.1064 16.1 90.1597 16.06C90.213 15.98 90.2797 15.92 90.3597 15.88C90.4397 15.84 90.5064 15.7933 90.5597 15.74V15.54C90.5864 15.4467 90.6197 15.3467 90.6597 15.24C90.713 15.1333 90.753 15.0333 90.7797 14.94C90.8464 14.8867 90.8997 14.8467 90.9397 14.82L91.0397 14.72V14.46L91.2397 14.18C91.2264 14.0733 91.213 13.96 91.1997 13.84C91.1997 13.72 91.2264 13.6067 91.2797 13.5V13.44C91.293 13.4133 91.293 13.3933 91.2797 13.38C91.2664 13.3133 91.2664 13.2467 91.2797 13.18C91.293 13.1133 91.313 13.0467 91.3397 12.98ZM88.5197 13.02C88.5597 13.0867 88.573 13.1667 88.5597 13.26C88.5064 13.4467 88.413 13.6133 88.2797 13.76C88.1464 13.9067 88.033 14.0733 87.9397 14.26C87.833 14.3133 87.7264 14.38 87.6197 14.46C87.5264 14.54 87.433 14.6133 87.3397 14.68C87.2197 14.7067 87.1064 14.7333 86.9997 14.76C86.9064 14.7733 86.8064 14.7667 86.6997 14.74H86.6397C86.5464 14.78 86.453 14.7933 86.3597 14.78C86.2664 14.7667 86.173 14.7467 86.0797 14.72C85.973 14.68 85.8597 14.6467 85.7397 14.62C85.633 14.5933 85.5197 14.5667 85.3997 14.54L85.3597 14.46C85.3464 14.4333 85.3397 14.4067 85.3397 14.38C85.353 14.22 85.3197 14.0533 85.2397 13.88C85.213 13.8133 85.1797 13.7467 85.1397 13.68C85.0997 13.6 85.0597 13.5267 85.0197 13.46C85.033 13.34 85.0597 13.2133 85.0997 13.08C85.153 12.9467 85.1864 12.8133 85.1997 12.68C85.253 12.6133 85.2997 12.54 85.3397 12.46C85.3797 12.38 85.4264 12.3067 85.4797 12.24C85.5064 12.1867 85.5397 12.1333 85.5797 12.08C85.6197 12.0133 85.6464 11.9533 85.6597 11.9C85.673 11.8333 85.693 11.7733 85.7197 11.72C85.7597 11.6533 85.793 11.5933 85.8197 11.54C85.8864 11.34 86.0264 11.26 86.2397 11.3H86.3397L86.3997 11.24C86.4264 11.2267 86.4464 11.22 86.4597 11.22C86.6864 11.1533 86.8797 11.16 87.0397 11.24C87.3064 11.36 87.553 11.42 87.7797 11.42C87.8064 11.46 87.833 11.4867 87.8597 11.5C87.8864 11.5 87.8997 11.5133 87.8997 11.54C87.993 11.66 88.0797 11.7867 88.1597 11.92C88.2397 12.04 88.3264 12.1733 88.4197 12.32V12.42C88.4197 12.46 88.413 12.4933 88.3997 12.52C88.3997 12.6 88.4064 12.6533 88.4197 12.68C88.4597 12.72 88.4797 12.7533 88.4797 12.78C88.4664 12.86 88.4797 12.94 88.5197 13.02Z" fill="white"/>
</svg>
